<svg xmlns="http://www.w3.org/2000/svg" width="478.02" height="420" viewBox="0 0 717.02 630" preserveAspectRatio="xMinYMin meet">
<metadata>
<structo:source xmlns:structo="https://nigjo.github.io/structogramview/">
<![CDATA[CAPTION: LargestSum(A: Z[n], &start:N, &end:N)
maxSum := A[0]; currentSum := A[0]
tempStart := 0
start := 0; end := 0
FOR: i := 1 to n - 1
 IF: currentSum < 0
  currentSum := A[i]
  tempStart := i
 ELSE:
  currentSum := currentSum + A[i]
 ENDIF:
 IF: currentSum > maxSum
  maxSum := currentSum
  start := tempStart
  end := i
 ENDIF:
ENDFOR:]]>
</structo:source>
</metadata>
<style>
svg{stroke:none;stroke-width:1px;fill:white;}
line{stroke:black;}
text{font-family:sans-serif;fill:black;}
.comment&gt;text{font-style:italic;fill:gray;}
.whiteShadow{fill:none !important;stroke:white;stroke-width:2px;}
.casevalue,.blocktitle{fill:gray;font-size:75%;font-style:italic;}
.caption{font-weight:bold;font-size:1.25em;}
svg{font-size:24px}</style>
<style class="darkreader darkreader--sync" media="screen"/>
<g class="diagram" transform="translate(0,0)">
<rect width="717.02" height="630"/>
<text x="19.5" y="45" textLength="661.5" class="caption">LargestSum(A: Z[n], &amp;start:N, &amp;end:N)</text>
<g class="sequence" transform="translate(12,57)">
<line x1="693.02" y1="0" x2="693.02" y2="49.5"/>
<line x1="0" y1="0" x2="0" y2="49.5"/>
<line x1="0" y1="0" x2="693.02" y2="0"/>
<text x="6" y="33" textLength="450">maxSum := A[0]; currentSum := A[0]</text>
</g>
<g class="sequence" transform="translate(12,106.5)">
<line x1="693.02" y1="0" x2="693.02" y2="49.5"/>
<line x1="0" y1="0" x2="0" y2="49.5"/>
<line x1="0" y1="0" x2="693.02" y2="0"/>
<text x="6" y="33" textLength="180">tempStart := 0</text>
</g>
<g class="sequence" transform="translate(12,156)">
<line x1="693.02" y1="0" x2="693.02" y2="49.5"/>
<line x1="0" y1="0" x2="0" y2="49.5"/>
<line x1="0" y1="0" x2="693.02" y2="0"/>
<text x="6" y="33" textLength="234">start := 0; end := 0</text>
</g>
<g class="for" transform="translate(12,205.5)">
<line x1="693.02" y1="0" x2="693.02" y2="412.5"/>
<line x1="0" y1="0" x2="0" y2="412.5"/>
<line x1="0" y1="0" x2="693.02" y2="0"/>
<line x1="0" y1="412.5" x2="693.02" y2="412.5"/>
<text x="12" y="33" textLength="159">i := 1 to n - 1</text>
<g class="block" transform="translate(37.5,49.5)">
<g class="if" transform="translate(0,0)">
<line x1="0" y1="0" x2="0" y2="156"/>
<line x1="0" y1="0" x2="654.02" y2="0"/>
<line x1="0" y1="0" x2="239.15" y2="55.5"/>
<line x1="239.15" y1="55.5" x2="654.02" y2="0"/>
<text x="231.75" y="27" textLength="190.5" class="whiteShadow">currentSum &lt; 0</text>
<text x="231.75" y="27" textLength="190.5">currentSum &lt; 0</text>
<g class="then" transform="translate(1.5,55.5)">
<text x="4.5" y="-6" textLength="37.5" class="blocktitle">true</text>
<g class="sequence" transform="translate(0,0)">
<line x1="-1.5" y1="0" x2="239.15" y2="0"/>
<text x="6" y="33" textLength="225">currentSum := A[i]</text>
</g>
<g class="sequence" transform="translate(0,49.5)">
<line x1="-1.5" y1="0" x2="239.15" y2="0"/>
<line x1="0" y1="51" x2="237.65" y2="51"/>
<text x="6" y="33" textLength="171">tempStart := i</text>
</g>
</g>
<g class="else" transform="translate(239.15,55.5)">
<line x1="0" y1="0" x2="0" y2="100.5"/>
<text x="366.08" y="-6" textLength="43.5" class="blocktitle">false</text>
<g class="sequence" transform="translate(1.5,0)">
<line x1="-1.5" y1="0" x2="414.87" y2="0"/>
<line x1="0" y1="51" x2="413.37" y2="51"/>
<text x="6" y="33" textLength="402">currentSum := currentSum + A[i]</text>
</g>
</g>
</g>
<g class="if" transform="translate(0,156)">
<line x1="0" y1="0" x2="0" y2="205.5"/>
<line x1="0" y1="0" x2="654.02" y2="0"/>
<line x1="0" y1="0" x2="526.25" y2="55.5"/>
<line x1="526.25" y1="55.5" x2="654.02" y2="0"/>
<text x="186" y="27" textLength="282" class="whiteShadow">currentSum &gt; maxSum</text>
<text x="186" y="27" textLength="282">currentSum &gt; maxSum</text>
<g class="then" transform="translate(1.5,55.5)">
<text x="4.5" y="-6" textLength="37.5" class="blocktitle">true</text>
<g class="sequence" transform="translate(0,0)">
<line x1="-1.5" y1="0" x2="526.25" y2="0"/>
<text x="6" y="33" textLength="289.5">maxSum := currentSum</text>
</g>
<g class="sequence" transform="translate(0,49.5)">
<line x1="-1.5" y1="0" x2="526.25" y2="0"/>
<text x="6" y="33" textLength="220.5">start := tempStart</text>
</g>
<g class="sequence" transform="translate(0,99)">
<line x1="-1.5" y1="0" x2="526.25" y2="0"/>
<line x1="0" y1="51" x2="524.75" y2="51"/>
<text x="6" y="33" textLength="96">end := i</text>
</g>
</g>
<g class="else" transform="translate(526.25,55.5)">
<line x1="0" y1="0" x2="0" y2="150"/>
<text x="78.97" y="-6" textLength="43.5" class="blocktitle">false</text>
<g class="sequence" transform="translate(1.5,0)">
<line x1="-1.5" y1="0" x2="127.78" y2="0"/>
<line x1="0" y1="51" x2="126.28" y2="51"/>
</g>
</g>
</g>
</g>
</g>
</g>
</svg>